inDegrees=yes
name=ik_Xsens
DataType=double
version=3
OpenSimVersion=4.4-2022-07-23-0e9fedc
endheader
time	pelvis_tilt	pelvis_list	pelvis_rotation	pelvis_tx	pelvis_ty	pelvis_tz	hip_flexion_r	hip_adduction_r	hip_rotation_r	knee_angle_r	knee_angle_r_beta	ankle_angle_r	subtalar_angle_r	mtp_angle_r	hip_flexion_l	hip_adduction_l	hip_rotation_l	knee_angle_l	knee_angle_l_beta	ankle_angle_l	subtalar_angle_l	mtp_angle_l	lumbar_extension	lumbar_bending	lumbar_rotation	arm_flex_r	arm_add_r	arm_rot_r	elbow_flex_r	pro_sup_r	wrist_flex_r	wrist_dev_r	arm_flex_l	arm_add_l	arm_rot_l	elbow_flex_l	pro_sup_l	wrist_flex_l	wrist_dev_l
15.68333333333333	-6.412274371619062e-26	-2.727158022980243e-16	2.573406426027626e-27	-1.668142151803723e-23	0.93	-1.701434890348873e-22	-3.463062948160623e-30	2.850836319303246e-21	0	0	-6.248059377005668e-18	-6.015000233482603e-21	-1.224179187776439e-18	9.377470351715682e-17	2.083135701550792e-19	-1.581829869689095e-27	1.288165926959532e-19	0	-6.261100436317495e-18	-4.871875600137228e-19	-1.377501621103989e-22	6.868550714842938e-17	-4.662969294105482e-26	-1.0132798117619e-24	-2.818181029644865e-24	-4.011610214473042	1.930220124260836	38.42026453851544	52.91846549534446	-2.38852977570081	8.698016638677108e-19	-3.49527214456952e-16	9.202423597488909	-0.618779777589925	49.98357849985828	1.18215933726639	20.67189412464563	-2.972659816740627e-23	-3.830033942475905e-16
15.7	-2.509015245124237e-45	-1.077613842297402e-35	1.176100896151986e-46	-7.174648137343063e-43	0.93	-8.609577764811676e-42	3.062762750395797e-49	1.233231173283465e-40	0	2.426570649309934e-20	-2.647802350360743e-23	-2.46646234656693e-40	-6.31414360721134e-38	4.041051908615258e-36	7.892679509014175e-39	-7.84067264101324e-47	5.261786339342783e-39	2.426570649309934e-20	-7.271009007823199e-23	-2.104714535737113e-38	-5.138463222014437e-42	2.694034605743505e-36	-1.881761433843178e-45	-4.014424392198779e-44	-1.204327317659634e-43	-4.049791585582406	1.964581094499295	38.46791808276548	52.94047671560993	-2.281090824271768	4.209429071474227e-38	-1.616420763446103e-35	9.189701387478893	-0.6369442926942742	49.84535639367191	1.224096962751386	20.77783501822786	-1.284615805503609e-42	-1.616420763446103e-35
15.71666666666667	0	0	0	0	0.93	0	0	0	0	0	0	0	0	0	0	0	0	0	0	0	0	0	0	0	0	-4.04805523749844	1.986442004969095	38.57545683744113	52.94380710108969	-2.299712913005748	0	0	9.181840623570793	-0.6355723355361746	49.75897729056901	1.248819098943228	20.78633346167891	0	0
15.73333333333333	3.121340391584157e-28	-1.5798149917644e-21	1.220082023236841e-25	1.714872071853724e-20	0.93	0	-1.309499910479817e-24	1.944102460979302e-24	-1.971322743764413e-16	0	-1.261710705698978e-18	-4.593314569043212e-22	-7.669225585384403e-22	-5.237476676730176e-18	-8.014179884268728e-16	-4.226859383528944e-15	1.409938191142145e-16	0	-1.261710317300082e-18	-1.773715406700816e-22	-1.353033463644437e-21	4.814064980253539e-18	-2.144631706290602e-17	-4.101822969995431e-17	-1.476717525437802e-15	-4.045395974047743	1.980419776486459	38.59195283240692	52.96274245944242	-2.376523972422253	-4.970233070426379e-22	3.457971246450169e-21	9.17391675041295	-0.6254303193759845	49.73074015638326	1.267319646395514	20.7949457993621	-5.869138859411944e-22	1.301783358913724e-21
15.75	1.470126120189982e-47	-6.166155866417324e-41	5.018030490248473e-45	7.346839692639297e-40	0.93	0	-6.021636588298168e-44	8.028848784397557e-44	-8.082103817230515e-36	2.426570649309934e-20	7.884116454014042e-23	-2.055385288805775e-41	-3.083077933208662e-41	-2.525657442884536e-37	-3.232841526892206e-35	-1.724182147675843e-34	5.38806921148701e-36	2.426570649309934e-20	7.922956343622531e-23	-7.707694833021655e-42	-6.166155866417324e-41	2.525657442884536e-37	-1.010262977153814e-36	-2.020525954307629e-36	-6.465683053784412e-35	-4.046067104189801	1.973417926671829	38.58658809662172	52.98562671864421	-2.435584907790678	-2.055385288805775e-41	1.64430823104462e-40	9.174544904567876	-0.6222777378940171	49.71661265088904	1.280995903399681	20.81763753602381	-3.083077933208662e-41	6.166155866417324e-41
15.76666666666667	3.984784833344162e-67	-1.671339896563475e-60	1.530157376004158e-64	2.240285500030011e-59	0.93	0	3.445608094195272e-49	2.448251801606653e-63	-2.190658629223678e-55	1.819927986982451e-20	5.913087340510531e-23	-6.267524612113033e-61	-8.356699482817376e-61	-6.845808216323994e-57	3.445608094195272e-49	-5.257580710136828e-54	1.642993971917759e-55	1.819927986982451e-20	5.942217257716898e-23	-2.089174870704344e-61	-1.671339896563475e-60	6.845808216323994e-57	-2.738323286529598e-56	-5.476646573059195e-56	-1.752526903378943e-54	-4.0628130360916	1.987217934813311	38.58229499840334	53.02145232272468	-2.414287804494244	-6.267524612113033e-61	5.014019689690426e-60	9.17602979608065	-0.6279073095910427	49.68781014322209	1.305853405232567	20.91219344704544	-8.356699482817376e-61	1.671339896563475e-60
15.78333333333333	0	0	0	0	0.93	0	0	0	0	0	0	0	0	0	0	0	0	0	0	0	0	0	0	0	0	-4.077476651665687	2.007776831584493	38.63493680108262	53.05941738671775	-2.353498996846674	0	0	9.16645591220666	-0.643281529652985	49.6246591470066	1.344396333520189	21.04268631688724	0	0
15.8	0	0	0	0	0.93	0	4.594144125593695e-49	0	0	2.426570649309934e-20	0	0	0	0	4.594144125593695e-49	0	0	2.426570649309934e-20	0	0	0	0	0	0	0	-4.098717496145562	2.012277665211993	38.6679005393983	53.09730148593254	-2.315693568363812	0	0	9.151978055094951	-0.6544307257504497	49.57175520961924	1.392425951283574	21.1250365791427	0	0
15.81666666666667	0	0	0	0	0.93	0	4.594144125593695e-49	0	0	2.426570649309934e-20	0	0	0	0	4.594144125593695e-49	0	0	2.426570649309934e-20	0	0	0	0	0	0	0	-4.100194491272947	2.028622344723047	38.67885758859882	53.09359770516279	-2.339166037380557	0	0	9.136153612124934	-0.6501656740884668	49.56424840295116	1.427792484338429	21.07386430814596	0	0
15.83333333333333	0	0	0	0	0.93	0	4.594144125593695e-49	0	0	2.426570649309934e-20	0	0	0	0	4.594144125593695e-49	0	0	2.426570649309934e-20	0	0	0	0	0	0	0	-4.101407964990085	2.042518856521511	38.63130838042016	53.07771257436574	-2.377109655763888	0	0	9.118544975061742	-0.6398433983614865	49.58446369126127	1.45144832177155	21.00719948028354	0	0
15.85	0	0	0	0	0.93	0	4.594144125593695e-49	0	0	2.426570649309934e-20	5.241540515187501e-23	0	0	0	4.594144125593695e-49	0	0	2.426570649309934e-20	5.241540515187501e-23	0	0	0	0	0	0	-4.113769645644231	2.062040920069032	38.57345563281491	53.06135552396905	-2.382761712484217	0	0	9.10959300615702	-0.6286333354115106	49.60243275402506	1.463184318018256	20.99257853333485	0	0
15.86666666666667	0	0	0	0	0.93	0	4.594144125593695e-49	0	0	2.426570649309934e-20	5.241540515187501e-23	0	0	0	4.594144125593695e-49	0	0	2.426570649309934e-20	5.241540515187501e-23	0	0	0	0	0	0	-4.142658625992749	2.102008741909899	38.54460508337699	53.03124780220381	-2.335629666895917	0	0	9.096840623550351	-0.6329641116403504	49.58666307728232	1.494407181915518	21.00745085417957	0	0
15.88333333333333	0	0	0	0	0.93	0	4.594144125593695e-49	0	0	2.426570649309934e-20	1.0483081030375e-22	0	0	0	4.594144125593695e-49	0	0	2.426570649309934e-20	1.0483081030375e-22	0	0	0	0	0	0	-4.167160516929283	2.123533148131847	38.53905719808816	53.02914219581501	-2.296953647708151	0	0	9.074004729717883	-0.6423435734597941	49.4981892362926	1.54398632677036	21.07947898275744	0	0
15.9	0	0	0	0	0.93	0	4.594144125593695e-49	0	0	2.426570649309934e-20	1.0483081030375e-22	0	0	0	4.594144125593695e-49	0	0	2.426570649309934e-20	1.0483081030375e-22	0	0	0	0	0	0	-4.183389569936232	2.13804100455323	38.5222903681241	53.02571086970246	-2.312930603273492	0	0	9.045622869141388	-0.635799954933857	49.42843301551244	1.558500092270375	21.10708527959076	0	0
